# xmcd CD database file
#
# Track frame offsets:
#	150
#	35525
#	76239
#	108072
#	168482
#	224376
#
# Disc length: 4073 seconds
#
# Revision: 0
# Processed by: cddbd v1.5PL3 Copyright (c) Steve Scherf et al.
# Submitted via: CDex 1.51
#
DISCID=440fe706
DTITLE=David Field - RED DOG - An Australian Story CD 2
DYEAR=2001
DGENRE=Country
TTITLE0=Has Anyone Seen John
TTITLE1=Looking for John
TTITLE2=Red Dog and Red Car
TTITLE3=Red Dog, Don and The Ranger
TTITLE4=Red Dog and the Dreaded Cribbages
TTITLE5=The Last Journey
EXTD=YEAR: 2001
EXTT0=
EXTT1=
EXTT2=
EXTT3=
EXTT4=
EXTT5=
PLAYORDER=
